<svg xmlns="http://www.w3.org/2000/svg" viewBox="0 0 32 32" role="img" aria-label="Abram Monitor">
  <rect width="32" height="32" rx="6" fill="#0e141b"/>
  <polygon points="16,4 27,10 27,22 16,28 5,22 5,10" fill="none" stroke="#e6edf3" stroke-width="1.2" stroke-linejoin="round"/>
  <g stroke="#7aa2d8" stroke-width="0.85" stroke-linecap="round" fill="none" opacity="0.9">
    <line x1="16" y1="4"  x2="16" y2="16"/>
    <line x1="27" y1="10" x2="16" y2="16"/>
    <line x1="27" y1="22" x2="16" y2="16"/>
    <line x1="16" y1="28" x2="16" y2="16"/>
    <line x1="5"  y1="22" x2="16" y2="16"/>
    <line x1="5"  y1="10" x2="16" y2="16"/>
    <line x1="16" y1="4"  x2="27" y2="10"/>
    <line x1="27" y1="10" x2="27" y2="22"/>
    <line x1="27" y1="22" x2="16" y2="28"/>
    <line x1="16" y1="28" x2="5"  y2="22"/>
    <line x1="5"  y1="22" x2="5"  y2="10"/>
    <line x1="5"  y1="10" x2="16" y2="4"/>
  </g>
  <g fill="#e6edf3">
    <circle cx="16" cy="4"  r="1.6"/>
    <circle cx="27" cy="10" r="1.6"/>
    <circle cx="27" cy="22" r="1.6"/>
    <circle cx="16" cy="28" r="1.6"/>
    <circle cx="5"  cy="22" r="1.6"/>
    <circle cx="5"  cy="10" r="1.6"/>
  </g>
  <circle cx="16" cy="16" r="2.4" fill="#7aa2d8"/>
</svg>
